v -0.023211379 0.264999999 0.085288621
v -0.028824039 0.264999999 0.079675961
v -0.034436699 0.264999999 0.074063301
v -0.040049360 0.264999999 0.068450640
v -0.045662020 0.264999999 0.062837980
v -0.051274681 0.264999999 0.057225319
v -0.056887340 0.264999999 0.051612660
v -0.062500000 0.264999999 0.046000000
v -0.068112660 0.264999999 0.040387340
v -0.073725319 0.264999999 0.034774681
v -0.079337982 0.264999999 0.029162018
v -0.084950638 0.264999999 0.023549362
v -0.090563301 0.264999999 0.017936699
v -0.096175958 0.264999999 0.012324042
v -0.101788621 0.264999999 0.006711379
v -0.023211379 0.276666667 0.085288621
v -0.028824039 0.276666667 0.079675961
v -0.034436699 0.276666667 0.074063301
v -0.040049360 0.276666667 0.068450640
v -0.045662020 0.276666667 0.062837980
v -0.051274681 0.276666667 0.057225319
v -0.056887340 0.276666667 0.051612660
v -0.062500000 0.276666667 0.046000000
v -0.068112660 0.276666667 0.040387340
v -0.073725319 0.276666667 0.034774681
v -0.079337982 0.276666667 0.029162018
v -0.084950638 0.276666667 0.023549362
v -0.090563301 0.276666667 0.017936699
v -0.096175958 0.276666667 0.012324042
v -0.101788621 0.276666667 0.006711379
v -0.023211379 0.288333334 0.085288621
v -0.028824039 0.288333334 0.079675961
v -0.034436699 0.288333334 0.074063301
v -0.040049360 0.288333334 0.068450640
v -0.045662020 0.288333334 0.062837980
v -0.051274681 0.288333334 0.057225319
v -0.056887340 0.288333334 0.051612660
v -0.062500000 0.288333334 0.046000000
v -0.068112660 0.288333334 0.040387340
v -0.073725319 0.288333334 0.034774681
v -0.079337982 0.288333334 0.029162018
v -0.084950638 0.288333334 0.023549362
v -0.090563301 0.288333334 0.017936699
v -0.096175958 0.288333334 0.012324042
v -0.101788621 0.288333334 0.006711379
v -0.023211379 0.300000000 0.085288621
v -0.028824039 0.300000000 0.079675961
v -0.034436699 0.300000000 0.074063301
v -0.040049360 0.300000000 0.068450640
v -0.045662020 0.300000000 0.062837980
v -0.051274681 0.300000000 0.057225319
v -0.056887340 0.300000000 0.051612660
v -0.062500000 0.300000000 0.046000000
v -0.068112660 0.300000000 0.040387340
v -0.073725319 0.300000000 0.034774681
v -0.079337982 0.300000000 0.029162018
v -0.084950638 0.300000000 0.023549362
v -0.090563301 0.300000000 0.017936699
v -0.096175958 0.300000000 0.012324042
v -0.101788621 0.300000000 0.006711379
v -0.023211379 0.311666669 0.085288621
v -0.028824039 0.311666669 0.079675961
v -0.034436699 0.311666669 0.074063301
v -0.040049360 0.311666669 0.068450640
v -0.045662020 0.311666669 0.062837980
v -0.051274681 0.311666669 0.057225319
v -0.056887340 0.311666669 0.051612660
v -0.062500000 0.311666669 0.046000000
v -0.068112660 0.311666669 0.040387340
v -0.073725319 0.311666669 0.034774681
v -0.079337982 0.311666669 0.029162018
v -0.084950638 0.311666669 0.023549362
v -0.090563301 0.311666669 0.017936699
v -0.096175958 0.311666669 0.012324042
v -0.101788621 0.311666669 0.006711379
v -0.023211379 0.323333337 0.085288621
v -0.028824039 0.323333337 0.079675961
v -0.034436699 0.323333337 0.074063301
v -0.040049360 0.323333337 0.068450640
v -0.045662020 0.323333337 0.062837980
v -0.051274681 0.323333337 0.057225319
v -0.056887340 0.323333337 0.051612660
v -0.062500000 0.323333337 0.046000000
v -0.068112660 0.323333337 0.040387340
v -0.073725319 0.323333337 0.034774681
v -0.079337982 0.323333337 0.029162018
v -0.084950638 0.323333337 0.023549362
v -0.090563301 0.323333337 0.017936699
v -0.096175958 0.323333337 0.012324042
v -0.101788621 0.323333337 0.006711379
v -0.023211379 0.335000001 0.085288621
v -0.028824039 0.335000001 0.079675961
v -0.034436699 0.335000001 0.074063301
v -0.040049360 0.335000001 0.068450640
v -0.045662020 0.335000001 0.062837980
v -0.051274681 0.335000001 0.057225319
v -0.056887340 0.335000001 0.051612660
v -0.062500000 0.335000001 0.046000000
v -0.068112660 0.335000001 0.040387340
v -0.073725319 0.335000001 0.034774681
v -0.079337982 0.335000001 0.029162018
v -0.084950638 0.335000001 0.023549362
v -0.090563301 0.335000001 0.017936699
v -0.096175958 0.335000001 0.012324042
v -0.101788621 0.335000001 0.006711379
f 1 17 2
f 1 16 17
f 2 17 3
f 3 17 18
f 3 19 4
f 3 18 19
f 4 19 5
f 5 19 20
f 5 21 6
f 5 20 21
f 6 21 7
f 7 21 22
f 7 23 8
f 7 22 23
f 8 23 9
f 9 23 24
f 9 25 10
f 9 24 25
f 10 25 11
f 11 25 26
f 11 27 12
f 11 26 27
f 12 27 13
f 13 27 28
f 13 29 14
f 13 28 29
f 14 29 15
f 15 29 30
f 16 31 17
f 17 31 32
f 17 33 18
f 17 32 33
f 18 33 19
f 19 33 34
f 19 35 20
f 19 34 35
f 20 35 21
f 21 35 36
f 21 37 22
f 21 36 37
f 22 37 23
f 23 37 38
f 23 39 24
f 23 38 39
f 24 39 25
f 25 39 40
f 25 41 26
f 25 40 41
f 26 41 27
f 27 41 42
f 27 43 28
f 27 42 43
f 28 43 29
f 29 43 44
f 29 45 30
f 29 44 45
f 31 47 32
f 31 46 47
f 32 47 33
f 33 47 48
f 33 49 34
f 33 48 49
f 34 49 35
f 35 49 50
f 35 51 36
f 35 50 51
f 36 51 37
f 37 51 52
f 37 53 38
f 37 52 53
f 38 53 39
f 39 53 54
f 39 55 40
f 39 54 55
f 40 55 41
f 41 55 56
f 41 57 42
f 41 56 57
f 42 57 43
f 43 57 58
f 43 59 44
f 43 58 59
f 44 59 45
f 45 59 60
f 46 61 47
f 47 61 62
f 47 63 48
f 47 62 63
f 48 63 49
f 49 63 64
f 49 65 50
f 49 64 65
f 50 65 51
f 51 65 66
f 51 67 52
f 51 66 67
f 52 67 53
f 53 67 68
f 53 69 54
f 53 68 69
f 54 69 55
f 55 69 70
f 55 71 56
f 55 70 71
f 56 71 57
f 57 71 72
f 57 73 58
f 57 72 73
f 58 73 59
f 59 73 74
f 59 75 60
f 59 74 75
f 61 77 62
f 61 76 77
f 62 77 63
f 63 77 78
f 63 79 64
f 63 78 79
f 64 79 65
f 65 79 80
f 65 81 66
f 65 80 81
f 66 81 67
f 67 81 82
f 67 83 68
f 67 82 83
f 68 83 69
f 69 83 84
f 69 85 70
f 69 84 85
f 70 85 71
f 71 85 86
f 71 87 72
f 71 86 87
f 72 87 73
f 73 87 88
f 73 89 74
f 73 88 89
f 74 89 75
f 75 89 90
f 76 91 77
f 77 91 92
f 77 93 78
f 77 92 93
f 78 93 79
f 79 93 94
f 79 95 80
f 79 94 95
f 80 95 81
f 81 95 96
f 81 97 82
f 81 96 97
f 82 97 83
f 83 97 98
f 83 99 84
f 83 98 99
f 84 99 85
f 85 99 100
f 85 101 86
f 85 100 101
f 86 101 87
f 87 101 102
f 87 103 88
f 87 102 103
f 88 103 89
f 89 103 104
f 89 105 90
f 89 104 105
